# xmcd CD database file
#
# Track frame offsets:
#	150
#	14287
#	26852
#	41025
#	53894
#	68616
#	87077
#	99856
#	111750
#	123895
#	134805
#	152225
#	164759
#	178248
#	191133
#	206471
#	218473
#	232321
#	249451
#	270310
#
# Disc length: 3831 seconds
#
# Revision: 2
# Processed by: cddbd v1.5.1PL2 Copyright (c) Steve Scherf et al.
# Submitted via: CDex 1.51
#
DISCID=1f0ef514
DTITLE=Various Artist - Country Gold 2
DYEAR=1900
DGENRE=
TTITLE0=Tennessee - Hallo Liebe Hörer
TTITLE1=Country Rose - Honky Tonk Saturday
TTITLE2=Sammy's Saloon - Sie Kocht Den Besten Kaffee Von Ganz Texas
TTITLE3=Gunther Gabriel - Hey Boss Ich Brauch Mehr Geld
TTITLE4=Tennessee - Wir Sind Ne Kleine Country Band
TTITLE5=Cissy - Trucker Fühln Sich Frei
TTITLE6=Tex Robinson - Hey Good Lookin'
TTITLE7=Jo Quint - Am Ende Der Welt
TTITLE8=Tennessee - Ich Bin K.o.
TTITLE9=Jo Quint - Adios Amigos
TTITLE10=Sammy's Saloon - Wandrin' Star
TTITLE11=Tex Robinson - You're My Best Friend
TTITLE12=Tennessee - Express
TTITLE13=Cissy - Sag Was Wird Sein
TTITLE14=Tex Haper - Der Alte Trucker
TTITLE15=Sammy's Saloon - Bad Moon Rising
TTITLE16=Tex Robinson - Sing Me Back Home
TTITLE17=Tennessee - Hallo Hier Ist Jens
TTITLE18=Gunther Gabriel - 30 Tonner Diesel
TTITLE19=Cissy - Gute Fahrt Auf Allen Wegen
EXTD=
EXTT0=
EXTT1=
EXTT2=
EXTT3=
EXTT4=
EXTT5=
EXTT6=
EXTT7=
EXTT8=
EXTT9=
EXTT10=
EXTT11=
EXTT12=
EXTT13=
EXTT14=
EXTT15=
EXTT16=
EXTT17=
EXTT18=
EXTT19=
PLAYORDER=
